HIERARCHY
ROOT root
{
	OFFSET	0	13.1	24.9
	CHANNELS 6  Xposition Yposition Zposition Xrotation Yrotation Zrotation
	JOINT spine_1
	{
		OFFSET	0	9.99999	0
		CHANNELS 3  Xrotation Yrotation Zrotation
		JOINT spine_2
		{
			OFFSET	0	112	-10
			CHANNELS 3  Xrotation Yrotation Zrotation
			JOINT spine_3
			{
				OFFSET	0	206.5	19.3
				CHANNELS 3  Xrotation Yrotation Zrotation
				JOINT spine_4
				{
					OFFSET	0	110.4	14.6
					CHANNELS 3  Xrotation Yrotation Zrotation
					JOINT neck_1
					{
						OFFSET	0	71.8	-50.3
						CHANNELS 3  Xrotation Yrotation Zrotation
						JOINT neck_2
						{
							OFFSET	0	86.2	-25.8
							CHANNELS 3  Xrotation Yrotation Zrotation
							JOINT head_ee
							{
								OFFSET	0	179.8	-8.7
								CHANNELS 3  Xrotation Yrotation Zrotation
								End Site
								{
									OFFSET	1	0	0
								}
							}
						}
					}
					JOINT left_clavicle
					{
						OFFSET	-43.2	22.4	-70.8
						CHANNELS 3  Xrotation Yrotation Zrotation
						JOINT left_shoulder
						{
							OFFSET	-93.9	-5.79999	48.7
							CHANNELS 3  Xrotation Yrotation Zrotation
							JOINT left_elbow
							{
								OFFSET	-291.4	-30.8	15.2
								CHANNELS 3  Xrotation Yrotation Zrotation
								JOINT left_lowarm_twist
								{
									OFFSET	-110.7	-3.89999	13.6
									CHANNELS 3  Xrotation Yrotation Zrotation
									JOINT left_hand
									{
										OFFSET	-110.7	-3.89999	13.6
										CHANNELS 3  Xrotation Yrotation Zrotation
										JOINT left_ee
										{
											OFFSET	-80.8	-5.10001	12.1
											CHANNELS 3  Xrotation Yrotation Zrotation
											End Site
											{
												OFFSET	1	0	0
											}
										}
									}
								}
							}
						}
					}
					JOINT right_clavicle
					{
						OFFSET	43.2	22.4	-70.8
						CHANNELS 3  Xrotation Yrotation Zrotation
						JOINT right_shoulder
						{
							OFFSET	93.9	-5.79999	48.7
							CHANNELS 3  Xrotation Yrotation Zrotation
							JOINT right_elbow
							{
								OFFSET	291.4	-30.8	15.2
								CHANNELS 3  Xrotation Yrotation Zrotation
								JOINT right_lowarm_twist
								{
									OFFSET	110.7	-3.89999	13.6
									CHANNELS 3  Xrotation Yrotation Zrotation
									JOINT right_hand
									{
										OFFSET	110.7	-3.89999	13.6
										CHANNELS 3  Xrotation Yrotation Zrotation
										JOINT right_ee
										{
											OFFSET	80.8	-5.10001	12.1
											CHANNELS 3  Xrotation Yrotation Zrotation
											End Site
											{
												OFFSET	1	0	0
											}
										}
									}
								}
							}
						}
					}
				}
			}
		}
	}
	JOINT left_hip
	{
		OFFSET	-82.8	-127.5	0.300001
		CHANNELS 3  Xrotation Yrotation Zrotation
		JOINT left_knee
		{
			OFFSET	-28.2	-396.7	2.2
			CHANNELS 3  Xrotation Yrotation Zrotation
			JOINT left_ankle
			{
				OFFSET	-11.7	-411.3	35.4
				CHANNELS 3  Xrotation Yrotation Zrotation
				JOINT left_toes
				{
					OFFSET	0	-60	-88.6
					CHANNELS 3  Xrotation Yrotation Zrotation
					JOINT left_foot_ee
					{
						OFFSET	-22.5	-16.5	-42.2
						CHANNELS 3  Xrotation Yrotation Zrotation
						End Site
						{
							OFFSET	1	0	0
						}
					}
				}
			}
		}
	}
	JOINT right_hip
	{
		OFFSET	82.8	-127.5	0.300001
		CHANNELS 3  Xrotation Yrotation Zrotation
		JOINT right_knee
		{
			OFFSET	28.2	-396.7	2.2
			CHANNELS 3  Xrotation Yrotation Zrotation
			JOINT right_ankle
			{
				OFFSET	11.7	-411.3	35.4
				CHANNELS 3  Xrotation Yrotation Zrotation
				JOINT right_toes
				{
					OFFSET	0	-60	-88.6
					CHANNELS 3  Xrotation Yrotation Zrotation
					JOINT right_foot_ee
					{
						OFFSET	22.5	-16.5	-42.2
						CHANNELS 3  Xrotation Yrotation Zrotation
						End Site
						{
							OFFSET	1	0	0
						}
					}
				}
			}
		}
	}
}
MOTION
Frames: 11
Frame Time: 0.02
757.919 689.978 -1202.69 -179.847 -42.6628 179.003 -3.45954 0.597351 2.08462 -3.45724 0.463521 2.11839 -3.43609 -0.121994 2.16505 -3.44257 0.221385 2.15716 10.4303 13.1971 -4.75744 11.9093 25.9057 -6.15769 -0.0 0.0 -0.0 -0.995288 15.8188 0.285618 16.3087 -30.3062 62.7219 3.57505 -60.533 2.08674 -14.5525 -0.73361 1.70501 3.42598 -10.1428 19.151 -0.0 0.0 -0.0 11.1925 23.6249 -21.7898 -22.3879 21.6612 -61.5854 0.237304 6.7047 -0.0139004 13.3947 -0.276106 1.6849 1.79507 -29.6927 -21.6667 0.0 0.0 0.0 -18.6185 17.9375 11.731 -11.621 0.30138 1.75491 41.8987 20.4206 -5.21077 -27.555 0.0 0.0 -0.0 0.0 -0.0 35.193 8.07721 -8.23903 -15.1939 -0.321914 -2.30263 4.1634 -5.88795 0.603228 -14.0588 0.0 0.0 0.0 0.0 0.0 
774.0 692.333 -1193.2 -179.435 -44.125 178.48 -3.66654 0.342246 2.3197 -3.66357 0.193985 2.33676 -3.65119 -0.449137 2.3014 -3.65857 -0.0801416 2.34343 7.98502 13.0124 -5.59536 9.42351 26.7523 -6.71873 -0.0 0.0 -0.0 -1.02735 16.7097 0.360749 16.4179 -30.2722 64.0049 3.13132 -57.1788 1.7068 -17.4482 -0.930032 2.01934 2.66545 -1.43287 17.539 -0.0 0.0 -0.0 11.1324 21.7892 -21.8168 -20.7705 24.4573 -60.7568 0.180256 5.10274 -0.00803209 8.93379 -0.228053 1.11726 1.40544 -29.5043 -19.3663 0.0 0.0 0.0 -20.3868 17.9399 12.0826 -8.44061 0.254412 1.26923 41.8978 20.5904 -5.21502 -24.7595 0.0 0.0 -0.0 0.0 -0.0 35.3194 6.76625 -7.93233 -17.2186 -0.31838 -2.61325 2.20031 -6.6287 0.320375 -13.7135 0.0 0.0 0.0 0.0 0.0 
796.86 689.222 -1176.52 178.802 -43.4235 177.102 -3.62764 0.371055 2.45162 -3.62432 0.214349 2.47025 -3.6101 -0.464129 2.43572 -3.61837 -0.0737503 2.47843 10.1441 12.2159 -4.02976 11.3248 23.6908 -5.12309 -0.0 0.0 -0.0 -1.58956 16.7152 -0.515109 13.5461 -31.3175 63.2521 3.02116 -56.2383 1.61472 -18.6712 -1.01774 2.14908 2.77293 1.9944 19.658 -0.0 0.0 -0.0 12.1106 21.038 -24.1104 -21.7959 24.9868 -58.6203 0.183691 5.19944 -0.00834041 10.3356 -0.247914 1.29522 2.30713 -29.6455 -24.691 0.0 0.0 0.0 -21.9313 18.1341 11.5937 -11.6425 0.301607 1.75821 42.3147 23.3968 -5.33194 -26.349 0.0 0.0 -0.0 0.0 -0.0 34.5843 4.31944 -7.08598 -22.8762 -0.250402 -3.47834 5.12387 4.14368 0.75715 -10.7967 0.0 0.0 0.0 0.0 0.0 
811.638 690.191 -1162.67 -179.931 -43.3264 178.368 -3.40126 0.512087 2.50482 -3.39784 0.351714 2.5323 -3.37699 -0.338336 2.53412 -3.38595 0.0659923 2.55574 11.1182 12.3186 -3.88752 12.3349 23.5646 -5.10268 -0.0 0.0 -0.0 -2.19404 17.3079 -1.35699 12.7068 -31.4001 64.7982 2.70519 -53.2591 1.35659 -23.8649 -1.42044 2.67837 2.34088 4.62842 17.6325 -0.0 0.0 -0.0 12.1288 19.8799 -24.2383 -20.5837 25.8942 -58.745 0.292445 8.24321 -0.0210736 10.2646 -0.247013 1.28619 2.90865 -29.181 -28.312 0.0 0.0 0.0 -22.6127 19.7156 10.4504 -9.90592 0.279402 1.49268 42.9221 22.468 -5.35755 -30.8764 0.0 0.0 -0.0 0.0 -0.0 35.0225 -1.98379 -7.31837 -24.5865 -0.213073 -3.73813 3.9937 18.0511 0.645102 -10.5621 0.0 0.0 0.0 0.0 0.0 
832.652 693.055 -1151.69 179.967 -44.135 178.341 -3.57076 0.344716 2.41193 -3.56754 0.190587 2.42896 -3.55473 -0.473494 2.39 -3.56269 -0.0902131 2.43475 12.6053 11.8566 -3.42842 13.7303 22.1395 -4.69451 -0.0 0.0 -0.0 -1.8527 19.4799 -0.47355 11.9285 -32.089 66.0168 2.48331 -50.8842 1.18155 -26.1567 -1.61313 2.90001 1.8366 8.10547 15.4626 -0.0 0.0 -0.0 12.583 18.8505 -25.3542 -21.2877 25.5159 -56.9953 0.303319 8.54525 -0.0226609 9.06383 -0.230079 1.13375 3.41966 -28.8339 -31.5581 0.0 0.0 0.0 -22.2597 19.4381 9.83224 -11.8565 0.303785 1.79097 42.267 23.9244 -5.34439 -32.3882 0.0 0.0 -0.0 0.0 -0.0 33.493 -3.13115 -6.19355 -23.8427 -0.230262 -3.62527 1.01283 19.4996 0.167257 -9.70189 0.0 0.0 0.0 0.0 0.0 
856.933 693.806 -1136.6 -179.499 -44.5558 178.372 -3.61613 0.267341 2.42593 -3.61286 0.112477 2.43802 -3.60345 -0.553231 2.37712 -3.6113 -0.170984 2.43462 13.3304 11.724 -4.40368 14.6194 22.7007 -6.06805 -0.0 0.0 -0.0 -1.69106 19.5446 -0.223149 7.47606 -33.427 65.0576 2.4113 -50.057 1.126 -28.2678 -1.79839 3.09727 1.38246 10.6997 13.3746 -0.0 0.0 -0.0 12.8055 18.828 -25.8713 -21.4927 25.7842 -56.2444 0.293382 8.26926 -0.0212082 5.81732 -0.168337 0.723693 3.54654 -28.5661 -32.3676 0.0 0.0 0.0 -22.0508 21.4851 9.19133 -14.053 0.31907 2.12762 41.5987 24.9591 -5.31742 -34.2662 0.0 0.0 -0.0 0.0 -0.0 32.2315 -6.64784 -4.52624 -24.7716 -0.208569 -3.76617 4.80526 27.4698 0.854514 -7.27542 0.0 0.0 0.0 0.0 0.0 
881.376 698.949 -1120.58 -178.251 -44.3828 178.719 -3.03306 0.181559 2.41094 -3.02983 0.0278222 2.4176 -3.02475 -0.60561 2.34073 -3.03232 -0.228448 2.40695 13.474 11.2862 -4.90022 14.7811 22.44 -6.71488 -0.0 0.0 -0.0 -0.862894 20.196 1.09248 4.9809 -31.9668 65.949 1.85821 -42.6254 0.725012 -29.8713 -1.94391 3.24249 1.04872 12.2017 11.7408 -0.0 0.0 -0.0 13.0846 18.2735 -26.5542 -20.5457 25.3888 -56.7419 0.345309 9.70704 -0.0293214 4.12473 -0.126957 0.511447 3.57212 -29.7078 -32.6746 0.0 0.0 0.0 -20.67 22.0041 8.62181 -15.4178 0.322063 2.33699 40.1564 25.7877 -5.20931 -35.6251 0.0 0.0 -0.0 0.0 -0.0 31.23 -8.00592 -4.00339 -23.4315 -0.239134 -3.5628 3.98174 27.2303 0.708006 -6.58793 0.0 0.0 0.0 0.0 0.0 
916.549 703.25 -1111.4 -179.02 -43.1283 177.689 -2.78796 0.254996 2.41352 -2.78472 0.100946 2.42485 -2.77657 -0.52661 2.36916 -2.78437 -0.145951 2.42256 12.7187 11.1412 -4.38711 13.8877 21.8582 -5.91718 -0.0 0.0 -0.0 -1.17601 22.7367 1.00138 4.12212 -27.8481 69.3717 1.5482 -37.4831 0.525315 -31.7804 -2.1224 3.41004 -0.712407 20.2432 3.91864 -0.0 0.0 -0.0 13.049 17.7379 -26.5009 -20.9567 26.4118 -55.6337 0.357129 10.0327 -0.0313475 -0.0661495 0.00233528 -0.00812527 3.02121 -30.2411 -29.1826 0.0 0.0 0.0 -18.677 22.3396 7.93106 -23.2223 0.243475 3.531 39.2617 25.284 -5.10558 -32.2976 0.0 0.0 -0.0 0.0 -0.0 25.4321 -1.12234 -5.06158 -15.5991 -0.322086 -2.36481 6.9544 20.0944 1.13245 -8.95373 0.0 0.0 0.0 0.0 0.0 
939.17 705.029 -1095.2 -179.372 -41.1396 176.949 -3.00173 0.356257 2.58214 -2.99804 0.191283 2.59956 -2.98452 -0.49355 2.55947 -2.99365 -0.0832798 2.60526 13.674 11.8781 -5.86152 15.2772 24.2277 -8.07838 -0.0 0.0 -0.0 -1.5828 22.3423 0.374315 -0.18749 -34.7769 68.321 1.21462 -31.0336 0.337238 -33.8187 -2.31904 3.58231 -0.138804 18.4761 6.64873 -0.0 0.0 -0.0 13.1899 18.6864 -26.7755 -19.5947 28.0096 -56.219 0.379597 10.6498 -0.0353808 -3.05185 0.117476 -0.371928 3.59991 -30.5885 -32.9512 0.0 0.0 0.0 -15.2367 23.7762 6.63943 -29.0325 0.0799078 4.40728 41.909 25.5004 -5.36481 -33.6443 0.0 0.0 -0.0 0.0 -0.0 22.0935 -6.33934 -4.67912 -13.3856 -0.315791 -2.02527 4.14864 24.9658 0.717638 -7.13854 0.0 0.0 0.0 0.0 0.0 
956.629 709.063 -1087.34 -179.581 -40.4832 176.999 -2.72391 0.47225 2.55108 -2.72034 0.309017 2.57594 -2.70173 -0.360926 2.56918 -2.71093 0.049217 2.59393 11.09 13.2929 -3.53417 12.4108 24.8338 -4.70425 -0.0 0.0 -0.0 -1.61789 22.0886 0.285254 0.877049 -27.9211 72.0039 0.941911 -25.0131 0.208934 -37.1791 -2.65628 3.85079 -1.3695 25.9585 2.58383 -0.0 0.0 -0.0 12.754 17.1062 -25.8471 -16.3743 30.8443 -56.7192 0.344556 9.68626 -0.0291945 -7.10122 0.303656 -0.854934 2.67752 -30.0297 -27.0129 0.0 0.0 0.0 -12.1172 23.1928 6.3924 -34.9044 -0.174808 5.27193 42.2318 25.5559 -5.39649 -32.0568 0.0 0.0 -0.0 0.0 -0.0 18.9149 -0.295136 -5.11824 -8.57174 -0.256881 -1.2892 9.4991 22.8154 1.57318 -7.04801 0.0 0.0 0.0 0.0 0.0 
984.495 706.289 -1077.84 179.413 -39.8194 175.071 -2.44567 0.2957 2.86435 -2.44112 0.112911 2.87735 -2.43039 -0.614661 2.81325 -2.4414 -0.162839 2.87496 8.44386 15.7382 -7.26903 10.7966 32.6901 -9.13584 -0.0 0.0 -0.0 -1.4214 21.8346 0.523754 -4.84787 -35.2309 70.1281 0.725254 -19.7618 0.12633 -36.6587 -2.60303 3.8105 -0.832782 28.7078 6.69466 -0.0 0.0 -0.0 12.8872 19.6445 -26.0078 -15.3085 31.6775 -56.4523 0.471457 13.1458 -0.0543237 -8.24689 0.362495 -0.989121 3.32592 -30.415 -31.1457 0.0 0.0 0.0 -11.9622 24.421 7.9328 -37.5249 -0.316861 5.64866 41.1947 25.3745 -5.2939 -34.0274 0.0 0.0 -0.0 0.0 -0.0 15.9414 6.91168 -4.12997 -6.36631 -0.209282 -0.954127 15.7929 18.1408 2.43476 -8.38581 0.0 0.0 0.0 0.0 0.0 
